<svg xmlns="http://www.w3.org/2000/svg" viewBox="0 0 683.97 408.16"><defs><style>.cls-1{fill:#e6e8ea;}.cls-2{fill:#ccd4db;}.cls-3{fill:#8bccca;}.cls-4{fill:#c1eae3;}.cls-5,.cls-6{fill:none;stroke:#d9e2e8;stroke-linecap:round;stroke-linejoin:round;stroke-width:3px;}.cls-6{stroke-dasharray:9.85 9.85;}.cls-7{fill:#58abaf;}.cls-8{fill:#fff;}.cls-9{fill:#feac97;}.cls-10{fill:#f97373;}.cls-11{fill:#14313f;}.cls-12{fill:#2c4351;}.cls-13{fill:#3a5c6d;}.cls-14{fill:#2f4f5e;}.cls-15{fill:#365c6b;}.cls-16{fill:#e1e0f0;}.cls-17{fill:#b7b7e2;}.cls-18{fill:#00af9e;}.cls-19{fill:#54848c;}.cls-20{fill:#3f636d;}.cls-21{fill:#4a757f;}.cls-22{fill:#578d93;}.cls-23{fill:#e0877c;}.cls-24{fill:#5a959b;}.cls-25{fill:#456c75;}.cls-26{fill:#55868e;}.cls-27{fill:#02ceac;}.cls-28{fill:#40e2c3;}.cls-29{fill:#385863;}.cls-30{fill:#02998e;}.cls-31{fill:#00dfc0;}.cls-32{fill:#3a5b68;}.cls-33{fill:#d9fff8;}.cls-34{fill:#11efca;}.cls-35{fill:#67c1c1;}.cls-36{fill:#243f44;}</style></defs><g id="BACKGROUND"><path class="cls-1" d="M715.19,296.41h-40a1.87,1.87,0,0,1-1.89-1.84V259.85a1.86,1.86,0,0,0-1.88-1.84H668.6a1.86,1.86,0,0,1-1.89-1.83v-6.76a1.86,1.86,0,0,0-1.88-1.84h-2.07a1.86,1.86,0,0,1-1.88-1.84V219.06a1.86,1.86,0,0,0-1.89-1.83H609.24a1.85,1.85,0,0,0-1.88,1.83v26.68a1.86,1.86,0,0,1-1.89,1.84H596a1.87,1.87,0,0,0-1.89,1.84v6.76a1.85,1.85,0,0,1-1.88,1.83H580.83a1.86,1.86,0,0,1-1.89-1.83V204.84a1.86,1.86,0,0,0-1.88-1.84H553.2a1.86,1.86,0,0,1-1.88-1.84V156.75a1.86,1.86,0,0,0-1.89-1.83H547.9a1.87,1.87,0,0,1-1.89-1.84V137a1.86,1.86,0,0,0-1.88-1.84H531.59a1.86,1.86,0,0,0-1.88,1.84v16.06a1.86,1.86,0,0,1-1.88,1.84H510a1.86,1.86,0,0,0-1.89,1.83v44.41a1.86,1.86,0,0,1-1.88,1.84h-23a1.87,1.87,0,0,1-1.89-1.84V106a1.86,1.86,0,0,0-1.88-1.84H425.9A1.86,1.86,0,0,0,424,106v130.3a1.87,1.87,0,0,1-1.89,1.84H401.05a1.86,1.86,0,0,1-1.88-1.84V189.07a1.86,1.86,0,0,0-1.88-1.84h-8.61a1.85,1.85,0,0,1-1.88-1.83V98.51a1.87,1.87,0,0,0-1.89-1.84h-2.1a1.86,1.86,0,0,1-1.89-1.83v-13A1.85,1.85,0,0,0,379,80h-2.33a1.86,1.86,0,0,1-1.88-1.84v-13A1.85,1.85,0,0,0,373,63.38h-5a1.87,1.87,0,0,1-1.89-1.84v-13a1.86,1.86,0,0,0-1.88-1.84H353.12a1.86,1.86,0,0,0-1.88,1.84v13a1.87,1.87,0,0,1-1.89,1.84h-5.07a1.85,1.85,0,0,0-1.88,1.83v13A1.86,1.86,0,0,1,340.52,80H337.2a1.86,1.86,0,0,0-1.89,1.83v13a1.85,1.85,0,0,1-1.88,1.83h-2.11a1.86,1.86,0,0,0-1.88,1.84V185.4a1.85,1.85,0,0,1-1.88,1.83H319a1.85,1.85,0,0,1-1.88-1.83V156.82a1.87,1.87,0,0,0-1.89-1.84H236.85a1.86,1.86,0,0,0-1.88,1.84V209.7a1.87,1.87,0,0,1-1.89,1.84h-8.6a1.87,1.87,0,0,1-1.89-1.84V131.18a1.85,1.85,0,0,0-1.88-1.83h-3.9a1.86,1.86,0,0,1-1.88-1.84v-13a1.86,1.86,0,0,0-1.88-1.84H176a1.86,1.86,0,0,0-1.88,1.84v13a1.86,1.86,0,0,1-1.88,1.84h-5.15a1.85,1.85,0,0,0-1.88,1.83V209.7a1.87,1.87,0,0,1-1.89,1.84h-8.6a1.86,1.86,0,0,0-1.89,1.83v56.09a1.85,1.85,0,0,1-1.88,1.83H110.3a1.85,1.85,0,0,1-1.88-1.83V234.22a1.85,1.85,0,0,0-1.88-1.83H72.65a1.86,1.86,0,0,0-1.89,1.83V308a1.86,1.86,0,0,1-1.88,1.84H35a1.85,1.85,0,0,0-1.88,1.83v92.13A1.85,1.85,0,0,0,35,405.58H715.06a2,2,0,0,0,2-2h0V298.24A1.85,1.85,0,0,0,715.19,296.41Z" transform="translate(-33.11 -46.35)"/><ellipse class="cls-2" cx="249.76" cy="382.86" rx="222.54" ry="3.33"/><ellipse class="cls-2" cx="566.39" cy="404.51" rx="51.5" ry="3.66"/></g><g id="OBJECTS"><path class="cls-3" d="M528.81,279.18a1.2,1.2,0,0,0-1,.54l-2.33-.21a3.46,3.46,0,0,0-.47-1.23l1-.84.19,0a1,1,0,1,0-1-1s0,0,0,.06l-1,.86a3.41,3.41,0,0,0-1.28-.63l0-2.48a1.22,1.22,0,1,0-1.18-.11l0,2.5a3.43,3.43,0,0,0-1.23.36l-.67-.77a1.36,1.36,0,0,0,0-.2,1.22,1.22,0,1,0-1.22,1.21,1.33,1.33,0,0,0,.45-.08l.48.55a3.41,3.41,0,0,0-.71,1.15l-2.13-.19a1.34,1.34,0,0,0-1.16-.7,1.32,1.32,0,1,0,0,2.63,1.3,1.3,0,0,0,1.18-.75l1.89.17v0a3.4,3.4,0,0,0,.47,1.73l-.64.56a1.16,1.16,0,0,0-.42-.08,1.22,1.22,0,1,0,1.22,1.22,1.09,1.09,0,0,0,0-.26l.63-.55a3.37,3.37,0,0,0,2,.8l0,2a1.23,1.23,0,1,0,1.17,0l0-2.12a3.28,3.28,0,0,0,1.05-.5l.89,1a1.11,1.11,0,0,0,0,.19,1,1,0,1,0,1-1h-.06l-1-1.09a3.32,3.32,0,0,0,.56-1.37l2.22.2a1.23,1.23,0,0,0,1.11.72,1.22,1.22,0,1,0,0-2.43Z" transform="translate(-33.11 -46.35)"/><path class="cls-3" d="M164.33,127.58a1.21,1.21,0,0,0-1,.54l-2.32-.21a3.47,3.47,0,0,0-.48-1.23l1-.84.2,0a1,1,0,1,0-1-1s0,0,0,.06l-1,.86a3.49,3.49,0,0,0-1.28-.63l0-2.48a1.21,1.21,0,1,0-1.17-.11l0,2.5a3.38,3.38,0,0,0-1.22.36l-.68-.77a1.36,1.36,0,0,0,0-.2,1.22,1.22,0,1,0-1.21,1.22,1.34,1.34,0,0,0,.45-.09l.48.55a3.44,3.44,0,0,0-.72,1.15l-2.13-.19a1.31,1.31,0,1,0-1.15,1.93,1.3,1.3,0,0,0,1.18-.75l1.89.17v0a3.4,3.4,0,0,0,.47,1.73l-.65.56a1.15,1.15,0,0,0-.41-.08,1.22,1.22,0,1,0,0,2.43,1.21,1.21,0,0,0,1.21-1.21,2.28,2.28,0,0,0,0-.26l.62-.54a3.45,3.45,0,0,0,2,.79l0,2a1.22,1.22,0,1,0,1.82,1,1.2,1.2,0,0,0-.64-1.06l0-2.11a3.65,3.65,0,0,0,1.05-.51l.89,1a1.23,1.23,0,0,0,0,.19,1,1,0,1,0,1-1h-.06l-.95-1.09a3.46,3.46,0,0,0,.56-1.37l2.22.2a1.22,1.22,0,1,0,1.11-1.71Z" transform="translate(-33.11 -46.35)"/><path class="cls-3" d="M74.79,257.06a1.19,1.19,0,0,0-1,.53l-2.33-.21a3.48,3.48,0,0,0-.47-1.22l1-.85a.58.58,0,0,0,.19,0,1,1,0,1,0-1-1s0,0,0,.06l-1,.86a3.27,3.27,0,0,0-1.28-.63l0-2.49a1.22,1.22,0,1,0-1.71-1.11,1.2,1.2,0,0,0,.53,1l0,2.51a3.24,3.24,0,0,0-1.23.36l-.67-.78a1.22,1.22,0,1,0-1.2,1,1.13,1.13,0,0,0,.45-.09l.48.55a3.46,3.46,0,0,0-.71,1.16l-2.13-.19a1.32,1.32,0,1,0,0,1.18l1.89.17v0a3.4,3.4,0,0,0,.47,1.73l-.64.57a1.16,1.16,0,0,0-.42-.08,1.22,1.22,0,1,0,1.22,1.21,1.07,1.07,0,0,0,0-.25l.63-.55a3.42,3.42,0,0,0,2,.79l0,2a1.21,1.21,0,0,0-.62,1,1.22,1.22,0,1,0,1.79-1.07l0-2.11a3.51,3.51,0,0,0,1-.5l.89,1a1.36,1.36,0,0,0,0,.2,1,1,0,1,0,1-1h-.06l-.95-1.09a3.36,3.36,0,0,0,.56-1.38l2.22.2a1.22,1.22,0,1,0,1.11-1.7Z" transform="translate(-33.11 -46.35)"/><path class="cls-3" d="M407.05,127.89a2.32,2.32,0,0,0-1.92,1l-4.44-.4a6.54,6.54,0,0,0-.9-2.33l1.85-1.61a1.5,1.5,0,0,0,.37,0,1.85,1.85,0,1,0-1.84-1.84s0,.07,0,.11l-1.88,1.64a6.56,6.56,0,0,0-2.44-1.2l-.07-4.74a2.31,2.31,0,1,0-2.24-.2l.07,4.77a6.6,6.6,0,0,0-2.34.68L390,122.36a2.45,2.45,0,0,0,0-.38,2.32,2.32,0,1,0-2.32,2.32,2.2,2.2,0,0,0,.86-.17l.92,1.05a6.5,6.5,0,0,0-1.36,2.2l-4.06-.36a2.51,2.51,0,1,0,.05,2.25l3.6.32s0,0,0,.07a6.54,6.54,0,0,0,.9,3.29L387.38,134a2.25,2.25,0,0,0-.78-.15,2.32,2.32,0,1,0,2.31,2.32,2.63,2.63,0,0,0-.05-.49l1.19-1a6.49,6.49,0,0,0,3.76,1.5l.06,3.83a2.31,2.31,0,0,0,1.14,4.32A2.31,2.31,0,0,0,396.1,140l-.06-4a6.32,6.32,0,0,0,2-1l1.69,1.94a2.22,2.22,0,0,0,0,.37,1.84,1.84,0,1,0,1.84-1.84h-.12l-1.81-2.07a6.64,6.64,0,0,0,1.08-2.63l4.23.38a2.31,2.31,0,1,0,2.12-3.25Z" transform="translate(-33.11 -46.35)"/><path class="cls-3" d="M542.33,197.78a2.25,2.25,0,0,0-1.86,1l-4.3-.39a6.15,6.15,0,0,0-.87-2.26l1.79-1.56a2.19,2.19,0,0,0,.36,0,1.79,1.79,0,1,0-1.79-1.78s0,.07,0,.1l-1.82,1.6a6.38,6.38,0,0,0-2.36-1.17l-.07-4.59a2.25,2.25,0,1,0-2.17-.2l.06,4.63a6.17,6.17,0,0,0-2.26.66l-1.25-1.43a2.19,2.19,0,0,0,0-.36,2.25,2.25,0,1,0-2.24,2.24,2.31,2.31,0,0,0,.83-.16l.89,1a6.25,6.25,0,0,0-1.32,2.13l-3.94-.35a2.43,2.43,0,1,0,.05,2.18l3.49.32v.06a6.31,6.31,0,0,0,.87,3.2l-1.19,1a2.2,2.2,0,0,0-.77-.15,2.25,2.25,0,1,0,2.25,2.25,2.42,2.42,0,0,0,0-.47l1.16-1a6.25,6.25,0,0,0,3.64,1.46l0,3.71a2.24,2.24,0,1,0,3.36,1.94,2.22,2.22,0,0,0-1.19-2l-.06-3.9a6.52,6.52,0,0,0,2-.94l1.64,1.88a2.19,2.19,0,0,0,0,.36A1.79,1.79,0,1,0,537,205.1l-.11,0-1.75-2a6.37,6.37,0,0,0,1-2.55l4.1.37a2.25,2.25,0,1,0,2.05-3.15Z" transform="translate(-33.11 -46.35)"/><path class="cls-3" d="M688.35,174.12a1.55,1.55,0,0,0-1.29.68l-3-.26a4.43,4.43,0,0,0-.6-1.58l1.24-1.09.25,0a1.25,1.25,0,1,0-1.24-1.24s0,.05,0,.07l-1.27,1.11a4.32,4.32,0,0,0-1.65-.81l0-3.2a1.57,1.57,0,1,0-1.52-.14l0,3.22a4.52,4.52,0,0,0-1.58.47l-.87-1a1.07,1.07,0,0,0,0-.25,1.57,1.57,0,1,0-1.56,1.56,1.62,1.62,0,0,0,.58-.11l.62.71a4.37,4.37,0,0,0-.93,1.48l-2.74-.25a1.69,1.69,0,1,0,0,1.52l2.43.22v.05a4.39,4.39,0,0,0,.6,2.22l-.83.73a1.51,1.51,0,0,0-.53-.1,1.56,1.56,0,1,0,1.56,1.56,1.84,1.84,0,0,0,0-.33l.81-.7a4.43,4.43,0,0,0,2.53,1l0,2.58a1.57,1.57,0,1,0,1.51,0l0-2.72a4.44,4.44,0,0,0,1.35-.65l1.15,1.31a1,1,0,0,0,0,.25,1.25,1.25,0,1,0,1.24-1.25h-.07l-1.23-1.4a4.27,4.27,0,0,0,.73-1.77l2.85.26a1.57,1.57,0,1,0,1.43-2.19Z" transform="translate(-33.11 -46.35)"/><path class="cls-3" d="M277.11,154.21a2.25,2.25,0,0,0-1.86,1l-4.31-.38a6.2,6.2,0,0,0-.87-2.27l1.79-1.56a1.47,1.47,0,0,0,.36,0,1.79,1.79,0,1,0-1.78-1.79s0,.07,0,.11l-1.83,1.59a6.28,6.28,0,0,0-2.36-1.16l-.07-4.59A2.26,2.26,0,1,0,264,145l.07,4.63a6.23,6.23,0,0,0-2.27.67l-1.25-1.44a2,2,0,0,0,0-.36,2.25,2.25,0,1,0-1.42,2.09l.89,1a6.56,6.56,0,0,0-1.32,2.14l-3.94-.36a2.44,2.44,0,1,0,.05,2.19l3.49.31v.06a6.31,6.31,0,0,0,.87,3.2l-1.19,1a2.14,2.14,0,0,0-.76-.14,2.25,2.25,0,1,0,2.24,2.25,2.52,2.52,0,0,0,0-.48l1.16-1a6.28,6.28,0,0,0,3.64,1.46l.06,3.71a2.25,2.25,0,1,0,2.17,0l-.06-3.9a6.44,6.44,0,0,0,1.94-.93L270,163a1.37,1.37,0,0,0,0,.36,1.79,1.79,0,1,0,1.79-1.79h-.11l-1.76-2a6.32,6.32,0,0,0,1-2.55l4.1.37a2.25,2.25,0,1,0,2.06-3.15Z" transform="translate(-33.11 -46.35)"/><path class="cls-3" d="M671.43,248.78a1.21,1.21,0,0,0-1,.54l-2.32-.21a3.36,3.36,0,0,0-.48-1.23l1-.84.2,0a1,1,0,1,0-1-1s0,0,0,.06l-1,.86a3.49,3.49,0,0,0-1.28-.63l0-2.48a1.21,1.21,0,1,0-1.17-.11l0,2.5a3.38,3.38,0,0,0-1.23.36l-.68-.77a1.36,1.36,0,0,0,0-.2,1.22,1.22,0,0,0-2.43,0,1.22,1.22,0,0,0,1.22,1.22,1.34,1.34,0,0,0,.45-.09l.48.55a3.38,3.38,0,0,0-.72,1.16l-2.13-.2a1.32,1.32,0,1,0,0,1.18l1.89.17v0a3.4,3.4,0,0,0,.47,1.73l-.65.56a1.11,1.11,0,0,0-.41-.08,1.22,1.22,0,1,0,1.22,1.22,1.15,1.15,0,0,0,0-.26l.62-.54a3.48,3.48,0,0,0,2,.79l0,2a1.21,1.21,0,1,0,1.17,0l0-2.11a3.41,3.41,0,0,0,1.05-.51l.89,1a1.23,1.23,0,0,0,0,.19,1,1,0,1,0,1-1h-.06l-1-1.08a3.56,3.56,0,0,0,.56-1.38l2.22.2a1.22,1.22,0,1,0,1.11-1.71Z" transform="translate(-33.11 -46.35)"/><circle class="cls-4" cx="448.84" cy="93.07" r="5.36"/><circle class="cls-4" cx="618.49" cy="41.14" r="5.36"/><circle class="cls-4" cx="241.51" cy="39.59" r="5.36"/><circle class="cls-4" cx="91.85" cy="46.5" r="5.36"/><circle class="cls-4" cx="644.95" cy="286.74" r="5.36"/><circle class="cls-4" cx="33.39" cy="115.61" r="5.36"/><line class="cls-5" x1="84.08" y1="147.83" x2="88.54" y2="145.58"/><polyline class="cls-6" points="97.34 141.15 331.04 23.29 551.08 74.4"/><line class="cls-5" x1="555.88" y1="75.51" x2="560.75" y2="76.64"/><path class="cls-7" d="M379.57,60.64c0-.28,0-.46,0-.52v0c0-7.59-6.91-13.75-15.43-13.75s-15.44,6.16-15.44,13.75c0,0,0,.2,0,.58a14.26,14.26,0,0,0,.3,2.19c1.73,8.32,7.61,17.46,11.51,22.83a4.55,4.55,0,0,0,7.22,0c8.25-11.2,10.75-19,11.5-22.84A12.83,12.83,0,0,0,379.57,60.64Z" transform="translate(-33.11 -46.35)"/><circle class="cls-8" cx="331.04" cy="13.85" r="9.44"/><path class="cls-7" d="M621.53,120a5.53,5.53,0,0,0,0-.69v0c0-10-9.15-18.19-20.43-18.19s-20.43,8.14-20.43,18.19c0,0,0,.26,0,.77a18.41,18.41,0,0,0,.4,2.9c2.28,11,10.07,23.1,15.23,30.22a6,6,0,0,0,9.56,0c10.92-14.84,14.23-25.13,15.22-30.23A16.45,16.45,0,0,0,621.53,120Z" transform="translate(-33.11 -46.35)"/><circle class="cls-8" cx="568.01" cy="73.03" r="12.5"/><path class="cls-7" d="M121.15,194.48c0-.19,0-.31,0-.35h0c0-5-4.58-9.12-10.24-9.12s-10.23,4.08-10.23,9.12a2.86,2.86,0,0,0,0,.39,8.73,8.73,0,0,0,.2,1.45c1.14,5.51,5,11.58,7.63,15.14a3,3,0,0,0,4.79,0c5.48-7.43,7.13-12.59,7.63-15.15A8.1,8.1,0,0,0,121.15,194.48Z" transform="translate(-33.11 -46.35)"/><circle class="cls-8" cx="77.82" cy="147.83" r="6.26"/><rect class="cls-9" x="558.44" y="204.82" width="11.29" height="13.82"/><path class="cls-10" d="M602.84,252.59l-11.29-.93v6.83S598.92,258.8,602.84,252.59Z" transform="translate(-33.11 -46.35)"/><path class="cls-9" d="M609.76,237.78c0-.13,1.52-2.5,3.09-.82s2.12,9.77-4.25,9.08C608.6,246,608,243.15,609.76,237.78Z" transform="translate(-33.11 -46.35)"/><path class="cls-9" d="M585.35,237.74c-.05-.13-1.53-2.5-3.1-.82s-2.12,9.77,4.26,9.08C586.51,246,587.11,243.12,585.35,237.74Z" transform="translate(-33.11 -46.35)"/><path class="cls-9" d="M597.47,217.54c-8.35.35-13.76,8.35-13.76,13.09s.64,6.13,1.58,9.31.41,3.41.94,5.7,1.47,3.94,4.53,6.12a15,15,0,0,0,4.3,2,8.56,8.56,0,0,0,4.81,0,14.83,14.83,0,0,0,4.3-2c3.06-2.18,4-3.82,4.53-6.12s0-2.52.94-5.7,1.59-4.56,1.59-9.31S605.82,217.89,597.47,217.54Z" transform="translate(-33.11 -46.35)"/><path class="cls-10" d="M610,240.62s.61-2.07,1.49-1.61.32,3.45-.82,3.74-.31-.31-.29-1.26S610,240.62,610,240.62Z" transform="translate(-33.11 -46.35)"/><path class="cls-10" d="M584.87,240.25s-.6-2.07-1.48-1.62-.32,3.46.82,3.75.31-.31.29-1.26S584.87,240.25,584.87,240.25Z" transform="translate(-33.11 -46.35)"/><path class="cls-11" d="M592.72,235.14a10.08,10.08,0,0,0-2.87.41c-1.38.44-1.81-.29-1.48-1.18s2.73-1.24,4.13-.79S594,235.06,592.72,235.14Z" transform="translate(-33.11 -46.35)"/><path class="cls-11" d="M594.76,238.54a4.92,4.92,0,0,0-3.23-1.67c-1.95-.11-2.91.46-3.39.28s-.38.77.8.91S592.16,237.46,594.76,238.54Z" transform="translate(-33.11 -46.35)"/><ellipse class="cls-11" cx="558.29" cy="192.01" rx="1.04" ry="1.19"/><path class="cls-11" d="M602,235a10.08,10.08,0,0,1,2.87.41c1.38.45,1.81-.29,1.49-1.18s-2.74-1.23-4.13-.79S600.71,235,602,235Z" transform="translate(-33.11 -46.35)"/><path class="cls-11" d="M600,238.44a4.92,4.92,0,0,1,3.23-1.68c1.95-.11,2.91.46,3.39.29s.38.76-.8.9S602.58,237.36,600,238.44Z" transform="translate(-33.11 -46.35)"/><ellipse class="cls-11" cx="570.24" cy="191.9" rx="1.04" ry="1.19"/><path class="cls-11" d="M584.71,245.91a6.84,6.84,0,0,0,3,3.38.53.53,0,0,0,.3.05,8.07,8.07,0,0,1-1.7-3.33A5.58,5.58,0,0,1,584.71,245.91Z" transform="translate(-33.11 -46.35)"/><path class="cls-11" d="M611.43,229.69c-.12-3.14-.62-8.1-2.7-9s-7.68-3.42-10.49-4a.51.51,0,0,0-.18-.09,5.82,5.82,0,0,0-1.18,0,.51.51,0,0,0-.18.09c-2.81.61-8.34,3.16-10.49,4s-2.56,7.32-2.73,10.25l-.42.1s0,2.5.18,5.26a1.48,1.48,0,0,1,1,.25c.31,1.21,1.08,4,1.81,4.26.93.38.87-2.28.53-4.67s-.61-6.92,1.69-7.52c2-.53,5.37,1.47,9.17,1.18,3.8.29,7.14-1.71,9.17-1.18,2.3.6,2,5.12,1.69,7.52s-.4,5,.53,4.67c.69-.28,1.42-2.78,1.76-4.06a1.89,1.89,0,0,1,.84-.41c.3-3.42.5-6.66.5-6.66Z" transform="translate(-33.11 -46.35)"/><path class="cls-11" d="M608.6,246h0a8.06,8.06,0,0,1-2.28,3.94,6.22,6.22,0,0,0,3.54-3.92A6.67,6.67,0,0,1,608.6,246Z" transform="translate(-33.11 -46.35)"/><path class="cls-12" d="M582.92,231c.07-.58-1-13.6,12.09-17.19a9.68,9.68,0,0,1,5.31,0c4.45,1.3,12.78,5.2,11.7,16Z" transform="translate(-33.11 -46.35)"/><path class="cls-13" d="M584.65,228.39h-.13a.75.75,0,0,1-.61-.87c0-.23,1-5.73,4.72-9.25a14.83,14.83,0,0,1,8.56-3.87.75.75,0,1,1,.1,1.49,13.66,13.66,0,0,0-7.63,3.47c-3.34,3.17-4.26,8.36-4.27,8.41A.75.75,0,0,1,584.65,228.39Z" transform="translate(-33.11 -46.35)"/><path class="cls-12" d="M582.92,231s3.81,2.71,13.31,2.69A32.47,32.47,0,0,0,612,229.8l0-.44a63.18,63.18,0,0,0-13.13-2.29c-5.68-.33-13.47,1.42-16,3.46Z" transform="translate(-33.11 -46.35)"/><path class="cls-14" d="M582.92,230.53s3.87,2.34,13.38,2.31a35.34,35.34,0,0,0,15.76-3.48s-7-2.8-13.06-3.15S585,228.42,582.92,230.53Z" transform="translate(-33.11 -46.35)"/><path class="cls-15" d="M585.63,231.12a.75.75,0,0,1-.29-1.44c.28-.12,7-2.89,12.14-2.79A50.72,50.72,0,0,1,609,229a.75.75,0,1,1-.44,1.43,49.81,49.81,0,0,0-11.14-2h-.28c-4.79,0-11.19,2.66-11.25,2.68A.79.79,0,0,1,585.63,231.12Z" transform="translate(-33.11 -46.35)"/><path class="cls-16" d="M587.48,243.54s-.56,4.35,1.34,6.65a13.12,13.12,0,0,0,8.65,4c4,.23,8.95-3.39,9.77-5s.78-5.93.14-6.34-8.24-3.85-9.91-3.89S589,242.14,587.48,243.54Z" transform="translate(-33.11 -46.35)"/><path class="cls-17" d="M607.68,243.47a8.67,8.67,0,0,1-.61,3.32c-.82,1.59-5.78,5.21-9.77,5a13.11,13.11,0,0,1-8.64-4,6.47,6.47,0,0,1-1.25-3.06c0,1.46.14,3.91,1.41,5.44a13.12,13.12,0,0,0,8.65,4c4,.23,8.95-3.39,9.77-5A11.26,11.26,0,0,0,607.68,243.47Z" transform="translate(-33.11 -46.35)"/><path class="cls-16" d="M609.89,239.14a47.77,47.77,0,0,1-2.41,4.31c-.41.54,0-.22,0-.22l-1.51-.92A39.24,39.24,0,0,1,609.89,239.14Z" transform="translate(-33.11 -46.35)"/><path class="cls-16" d="M585.29,239.94c.55.82,2.21,3.84,2.3,4.11.22.65,0-.21,0-.21l1.38-1.12a27.91,27.91,0,0,0-2.36-1.83Z" transform="translate(-33.11 -46.35)"/><path class="cls-12" d="M622.67,423.18c-1.28-13-2.94-35.17-2.53-47.82.5-15.33-5.94-44.65-7.47-51.37a73.33,73.33,0,0,1-39.27-.46c-.34,3.18-.54,6.15-.65,8.68h0s-2.66,30,.41,47.15c2.07,11.64,3.55,31.61,4.23,44.85a1.23,1.23,0,0,0,0,.19c.11,3.46-1,16.54,0,17.28s3.75-.07,6.38-.5c.91-.15,1.87-2.85,2.74-6.31,3-9,6.09-30.05,5.25-33-1.06-3.68-2.31-17-2.26-18.51,0-.64.66-8.23,1.45-17.41h0L595,347.76l7.61,24.56c1.06,4.83,1.8,8.22,1.87,8.65.28,1.52,1,14.84.43,18.6-.27,1.93,2.22,11.26,5.15,19.94h0s5.69,21,8.35,21.09,5.47.55,6.39-.31S623,426.66,622.67,423.18Z" transform="translate(-33.11 -46.35)"/><path class="cls-13" d="M572.91,343.44a.75.75,0,0,1-.13-1.49c1.62-.26,6.07-1.25,7.29-2.59s2.18-7.56,2.6-11.28a.75.75,0,1,1,1.49.17c-.12,1-1.2,10.16-3,12.12s-7.51,3-8.15,3.06Z" transform="translate(-33.11 -46.35)"/><path class="cls-13" d="M615.61,343.44a.58.58,0,0,1-.19,0,58.47,58.47,0,0,1-7.57-2.4c-1.67-.89-2.7-8.38-3.16-12.78a.75.75,0,0,1,1.49-.15c.54,5.09,1.61,11,2.4,11.62a56.13,56.13,0,0,0,7.21,2.26.75.75,0,0,1-.18,1.47Z" transform="translate(-33.11 -46.35)"/><path class="cls-11" d="M576.94,439.88s-4.2,6.54-6.5,7.55-5.72,1.32-7.15,2.07-2,4.15-2,4.15,23.13-.57,24.41-1-.77-13.14-.84-13S578.87,440.81,576.94,439.88Z" transform="translate(-33.11 -46.35)"/><path class="cls-12" d="M564.31,451.19a.75.75,0,0,1-.11-1.5c3.71-.56,7.95-1.5,8.63-2.08.84-.71,3-4.24,4.21-6.3a.74.74,0,0,1,1-.27.75.75,0,0,1,.28,1c-.33.57-3.23,5.58-4.54,6.7s-8,2.21-9.37,2.42Z" transform="translate(-33.11 -46.35)"/><path class="cls-11" d="M625.07,440s4.35,6.44,6.67,7.39,5.75,1.2,7.19,1.91,2.13,4.1,2.13,4.1-23.13,0-24.43-.39.48-13.15.55-13S623.17,440.93,625.07,440Z" transform="translate(-33.11 -46.35)"/><path class="cls-12" d="M638.15,451.19H638c-1.33-.21-8-1.28-9.37-2.42s-4.22-6.13-4.54-6.7a.74.74,0,0,1,.27-1,.75.75,0,0,1,1,.27c1.23,2.14,3.36,5.59,4.21,6.3.68.58,4.92,1.52,8.62,2.08a.75.75,0,0,1,.63.86A.74.74,0,0,1,638.15,451.19Z" transform="translate(-33.11 -46.35)"/><path class="cls-18" d="M602.66,258.85v0Z" transform="translate(-33.11 -46.35)"/><path class="cls-18" d="M622.17,262.54a32.4,32.4,0,0,0-7.59-2.2,51.54,51.54,0,0,1-11.28-3.4,5.35,5.35,0,0,1-.83,2.56s-.57,1.08-5.45,1c-6.11-.06-6.15-4.67-6.15-4.67a84.28,84.28,0,0,1-11.28,1.93c-6.44.68-9.4,2.38-9.4,2.38l0,.57s4.6,36.86,2.44,62.52c0,0,18.08,6.79,41,.48,0,0,.55-31.51,3.09-42,1.9-7.83,4.11-14.68,5.12-17.67C621.86,264.06,622.32,262.5,622.17,262.54Z" transform="translate(-33.11 -46.35)"/><path class="cls-19" d="M596.62,261.54c-6.51,0-6.88-5.12-6.88-5.17a1,1,0,0,1,.94-1.06,1,1,0,0,1,1.06.94c0,.36.39,3.44,5.24,3.28,5.09-.17,5.83-2.84,5.86-2.95a1,1,0,0,1,1.2-.73,1,1,0,0,1,.75,1.17c0,.18-1,4.29-7.74,4.51Z" transform="translate(-33.11 -46.35)"/><rect class="cls-20" x="575.61" y="271.4" width="38.16" height="34.11" transform="translate(-22.37 -67.51) rotate(2.06)"/><polygon class="cls-21" points="581.26 225.74 573.75 222.7 549.03 221.78 543.13 224.38 581.26 225.74"/><rect class="cls-21" x="598.35" y="275.67" width="9.9" height="26.19" transform="translate(-22.36 -67.82) rotate(2.06)"/><path class="cls-21" d="M577.88,281.12a.74.74,0,0,1-.75-.75v-7.12a.77.77,0,0,1,.22-.54.78.78,0,0,1,.54-.21l32.91.75a.75.75,0,0,1,.73.77.79.79,0,0,1-.77.73L578.63,274v6.35A.75.75,0,0,1,577.88,281.12Z" transform="translate(-33.11 -46.35)"/><path class="cls-21" d="M610.7,304.56h0L577,303.44a.76.76,0,0,1-.73-.78.73.73,0,0,1,.78-.72l33.68,1.12a.75.75,0,0,1,0,1.5Z" transform="translate(-33.11 -46.35)"/><path class="cls-19" d="M570,260.24s-4,2.47-6.24,9.47-7.76,24-7.56,28.93,4.75,4.84,8.14,3.75,7.87-16.08,9.22-20.48S573.24,261.76,570,260.24Z" transform="translate(-33.11 -46.35)"/><path class="cls-22" d="M573.17,284.89s-13.91,4.25-16.55,9.82c-1.19,2.52-1.9,13,2.69,12.75s13-10.83,15.66-13.69S576,284.83,573.17,284.89Z" transform="translate(-33.11 -46.35)"/><path class="cls-23" d="M578.61,283.34l.25,0s-.32.69-2,1a13.91,13.91,0,0,0-3.75,1.67l6.4-.51s-.27.84-.9,1-5,1.59-5,1.59l-.87,1.36,6.64-1.55a2.8,2.8,0,0,1-1.51,1.29c-1,.33-3.76,1.48-4.19,1.53s5.32-.06,5.32-.06a1.56,1.56,0,0,1-1.11.91,6.28,6.28,0,0,0-2.44,1.4c-.36.43-3-2.24-3-2.24l-.05-1.1.18-2.72.59-2S576.25,283.19,578.61,283.34Z" transform="translate(-33.11 -46.35)"/><path class="cls-9" d="M572.42,286.3a18.51,18.51,0,0,1,.87-3c.28-.39,2.55-.92,3.06-1.09s2.66-.05,2.62.52-.12.9-.91.94a12.8,12.8,0,0,0-3.17.87c-.27.19-1.64,1.23-1.64,1.23s1.22-.78,1.35-.92,2.09-.43,2.71-.65,1.52-.44,1.85-.21.72,1.3.2,1.71a18.93,18.93,0,0,1-4,1.16,5.64,5.64,0,0,0-2.42,1.2,7,7,0,0,0-.32,1.07,4.88,4.88,0,0,1,.52-1.15c.21-.23,2.21-.77,2.67-1,.25-.12,2.24-.36,3.11-.59s1,1,.25,1.76a7.09,7.09,0,0,1-3,.87,3.82,3.82,0,0,0-2.24,1.38s.62-.21.94-.29a11.86,11.86,0,0,1,1.86-.81,11.05,11.05,0,0,1,1.73-.18c.87.05,1,1.32.36,1.77-.42.31-2.39.59-2.91,1.33s-.69,1.56-.85,1.53a5,5,0,0,1-1.72-.75c-.21-.31-.14-1.32-.35-1.46s-1.14-.94-1.07-1.3a19.18,19.18,0,0,0,.36-2C572.18,288,571.66,287,572.42,286.3Z" transform="translate(-33.11 -46.35)"/><path class="cls-24" d="M558.38,294.45a.77.77,0,0,1-.52-.21.75.75,0,0,1,0-1.06c.16-.17,4.09-4.16,12.79-7.3a.75.75,0,1,1,.51,1.41c-8.35,3-12.19,6.89-12.23,6.93A.76.76,0,0,1,558.38,294.45Z" transform="translate(-33.11 -46.35)"/><path class="cls-19" d="M622.1,262.52s3.79,2.74,5.55,9.88,6,24.49,5.46,29.41-5.08,4.48-8.39,3.15S618,288.36,617,283.87,618.75,263.79,622.1,262.52Z" transform="translate(-33.11 -46.35)"/><path class="cls-22" d="M617.16,286.87s13.57,5.24,15.8,11c1,2.6,1,13.06-3.59,12.53s-12.21-11.74-14.64-14.78S614.35,286.61,617.16,286.87Z" transform="translate(-33.11 -46.35)"/><path class="cls-23" d="M611.85,284.94l-.25-.06s.27.71,1.91,1.18a14.24,14.24,0,0,1,3.62,1.94l-6.35-1s.22.85.83,1,4.92,1.95,4.92,1.95l.76,1.42-6.51-2a2.82,2.82,0,0,0,1.42,1.39c1,.4,3.64,1.75,4.07,1.83s-5.3-.44-5.3-.44a1.57,1.57,0,0,0,1,1,6.15,6.15,0,0,1,2.33,1.57c.33.45,3.13-2,3.13-2l.12-1.09,0-2.74-.45-2S614.21,285,611.85,284.94Z" transform="translate(-33.11 -46.35)"/><path class="cls-9" d="M617.81,288.33a20.08,20.08,0,0,0-.65-3c-.25-.4-2.49-1.09-3-1.3s-2.65-.24-2.64.33,0,.9.83,1a13,13,0,0,1,3.1,1.08l1.54,1.35s-1.16-.86-1.28-1-2.05-.58-2.65-.84-1.48-.55-1.82-.34-.82,1.24-.33,1.68a18.82,18.82,0,0,0,3.94,1.45,5.79,5.79,0,0,1,2.34,1.37,7.08,7.08,0,0,1,.23,1.09A4.84,4.84,0,0,0,617,290c-.2-.25-2.15-.93-2.59-1.19-.24-.14-2.21-.53-3.06-.82s-1,1-.37,1.74a6.9,6.9,0,0,0,3,1.09,3.84,3.84,0,0,1,2.14,1.54s-.6-.26-.92-.36a11.48,11.48,0,0,0-1.79-.94,11.75,11.75,0,0,0-1.72-.31c-.87,0-1.06,1.26-.49,1.74.41.34,2.35.76,2.82,1.54s.57,1.61.73,1.59a4.86,4.86,0,0,0,1.77-.63c.23-.29.24-1.3.46-1.43s1.2-.86,1.15-1.22-.24-1.68-.21-2S618.51,289.12,617.81,288.33Z" transform="translate(-33.11 -46.35)"/><path class="cls-24" d="M632.08,297a.74.74,0,0,1-.63-.33c-4.09-6.15-12.08-8.1-12.16-8.12a.77.77,0,0,1-.56-.91.76.76,0,0,1,.91-.55c.35.08,8.65,2.11,13.06,8.75a.75.75,0,0,1-.21,1A.78.78,0,0,1,632.08,297Z" transform="translate(-33.11 -46.35)"/><circle class="cls-12" cx="398.22" cy="348.09" r="35.02"/><circle class="cls-12" cx="396.86" cy="348.09" r="18.62"/><circle class="cls-12" cx="175.95" cy="348.98" r="35.02"/><circle class="cls-12" cx="174.59" cy="348.98" r="18.62"/><rect class="cls-25" x="334.43" y="316.75" width="121.83" height="29.3"/><path class="cls-26" d="M485,367.6H370.78a1.5,1.5,0,0,1,0-3H485a1.5,1.5,0,0,1,0,3Z" transform="translate(-33.11 -46.35)"/><path class="cls-8" d="M372.14,374.81v8.5c0,2.5,1.73,4.52,3.87,4.52h0c2.13,0,3.87-2,3.87-4.52v-8.5c0-2.49-1.74-4.51-3.87-4.51h0C373.87,370.3,372.14,372.32,372.14,374.81Z" transform="translate(-33.11 -46.35)"/><path class="cls-8" d="M477.23,374.81v8.5c0,2.5,1.74,4.52,3.87,4.52h0c2.14,0,3.87-2,3.87-4.52v-8.5c0-2.49-1.73-4.51-3.87-4.51h0C479,370.3,477.23,372.32,477.23,374.81Z" transform="translate(-33.11 -46.35)"/><rect class="cls-27" x="337.67" y="145.37" width="114.19" height="171.39"/><path class="cls-28" d="M481.1,299.36a1.5,1.5,0,0,1-1.5-1.5V196.19a1.5,1.5,0,1,1,3,0V297.86A1.5,1.5,0,0,1,481.1,299.36Z" transform="translate(-33.11 -46.35)"/><path class="cls-28" d="M374.65,299a1.5,1.5,0,0,1-1.5-1.5V195.82a1.5,1.5,0,0,1,3,0V297.49A1.5,1.5,0,0,1,374.65,299Z" transform="translate(-33.11 -46.35)"/><polyline class="cls-29" points="345.41 277.94 337.67 277.94 337.67 298.69 345.41 298.69 345.41 277.94"/><polyline class="cls-29" points="451.86 277.94 444.13 277.94 444.13 298.69 451.86 298.69 451.86 277.94"/><rect class="cls-18" x="345.41" y="153.79" width="98.72" height="152.71"/><polygon class="cls-30" points="444.13 153.79 345.41 306.5 345.41 153.79 444.13 153.79"/><rect class="cls-20" x="345.41" y="204.87" width="51.45" height="101.63"/><rect class="cls-21" x="376.86" y="251.51" width="51.45" height="55"/><path class="cls-12" d="M204.72,206.86H185.8c-6,0-11.49,3.54-14.7,9.39l-37.91,69-46.5,26.47-12.48,52H204.72Z" transform="translate(-33.11 -46.35)"/><polygon class="cls-31" points="48.42 284.81 57.3 284.81 51.3 311.69 42.56 311.27 48.42 284.81"/><path class="cls-32" d="M90.41,316.16a1.5,1.5,0,0,1-.76-2.79l42.16-24.69a1.5,1.5,0,0,1,1.51,2.59L91.17,316A1.49,1.49,0,0,1,90.41,316.16Z" transform="translate(-33.11 -46.35)"/><path class="cls-33" d="M174.07,227.7,140.2,288.5h64.52V219l-18.84.85C181.09,220.08,176.68,223,174.07,227.7Z" transform="translate(-33.11 -46.35)"/><path class="cls-8" d="M165.07,255.81a1.5,1.5,0,0,1-.85-2.73l34.2-23.66a1.5,1.5,0,0,1,1.71,2.47l-34.21,23.66A1.47,1.47,0,0,1,165.07,255.81Z" transform="translate(-33.11 -46.35)"/><path class="cls-8" d="M157.4,274.86a1.5,1.5,0,0,1-.86-2.73l34.2-23.66a1.5,1.5,0,1,1,1.71,2.47l-34.2,23.65A1.5,1.5,0,0,1,157.4,274.86Z" transform="translate(-33.11 -46.35)"/><path class="cls-8" d="M173.1,276.67a1.5,1.5,0,0,1-.86-2.73l25.18-17.41a1.5,1.5,0,1,1,1.71,2.46L174,276.41A1.49,1.49,0,0,1,173.1,276.67Z" transform="translate(-33.11 -46.35)"/><rect class="cls-31" x="171.61" y="145.37" width="166.06" height="171.39"/><path class="cls-34" d="M211.14,286.79a1.5,1.5,0,0,1-1.5-1.5V196.88a1.51,1.51,0,0,1,1.49-1.5l76.61-.69h0a1.51,1.51,0,0,1,1.5,1.49,1.49,1.49,0,0,1-1.49,1.51l-75.12.68v86.92A1.5,1.5,0,0,1,211.14,286.79Z" transform="translate(-33.11 -46.35)"/><polyline class="cls-20" points="337.67 277.94 329.93 277.94 329.93 298.69 337.67 298.69 337.67 277.94"/><polygon class="cls-7" points="240.57 230.17 229.1 292.52 290 292.52 281.48 230.17 240.57 230.17"/><path class="cls-7" d="M293.53,294.5C285,294.5,278,284.87,278,273s7-21.47,15.57-21.47,15.56,9.63,15.56,21.47S302.11,294.5,293.53,294.5Zm0-40.77c-7.4,0-13.41,8.66-13.41,19.31s6,19.31,13.41,19.31,13.41-8.67,13.41-19.31S300.92,253.73,293.53,253.73Z" transform="translate(-33.11 -46.35)"/><polygon class="cls-35" points="216.37 245.5 207.72 292.52 253.64 292.52 247.22 245.5 216.37 245.5"/><path class="cls-35" d="M264.45,305.41c-6.48,0-11.74-7.26-11.74-16.19S258,273,264.45,273s11.73,7.26,11.73,16.18S270.92,305.41,264.45,305.41Zm0-30.75c-5.58,0-10.12,6.53-10.12,14.56s4.54,14.57,10.12,14.57,10.11-6.54,10.11-14.57S270,274.66,264.45,274.66Z" transform="translate(-33.11 -46.35)"/><path class="cls-35" d="M277.87,239.82c0-.25,0-.4,0-.45v0c0-6.6-6-12-13.43-12s-13.44,5.36-13.44,12a3.89,3.89,0,0,0,0,.51,12,12,0,0,0,.26,1.91c1.5,7.24,6.62,15.2,10,19.87a4,4,0,0,0,6.29,0c7.19-9.76,9.36-16.52,10-19.88A10.63,10.63,0,0,0,277.87,239.82Z" transform="translate(-33.11 -46.35)"/><circle class="cls-31" cx="231.34" cy="193.08" r="8.22"/><rect class="cls-20" x="35.67" y="316.75" width="298.76" height="29.3"/><path class="cls-26" d="M286.19,369.41H166.46a1.5,1.5,0,1,1,0-3H286.19a1.5,1.5,0,0,1,0,3Z" transform="translate(-33.11 -46.35)"/><path class="cls-26" d="M101.93,367.94H70.73a1.5,1.5,0,0,1,0-3h31.2a1.5,1.5,0,0,1,0,3Z" transform="translate(-33.11 -46.35)"/><path class="cls-36" d="M361,395.34s-1.89-33.86-30.88-38.7-44.78,19.83-45.48,38.7Z" transform="translate(-33.11 -46.35)"/><circle class="cls-12" cx="290.11" cy="350.34" r="35.02"/><circle class="cls-20" cx="288.76" cy="350.34" r="18.62"/><path class="cls-36" d="M170.75,395.34s-1.89-33.86-30.88-38.7-44.78,19.83-45.49,38.7Z" transform="translate(-33.11 -46.35)"/><circle class="cls-12" cx="99.46" cy="348.98" r="35.02"/><circle class="cls-20" cx="98.1" cy="348.98" r="18.62"/></g></svg>