<svg xmlns="http://www.w3.org/2000/svg" width="526.896" height="460.5" viewBox="0 0 526.896 460.5">
  <g id="Group_22" data-name="Group 22" transform="translate(-780.598 -1217)">
    <g id="Group_21" data-name="Group 21" transform="translate(788 1213.022)">
      <path id="Path_3" data-name="Path 3" d="M143.6,275.345c0,2.341,2.446,4.239,5.464,4.239h34.352c-2.294,5.111-8.531,8.789-15.85,8.789H156.22c-3.453,0-6.531,1.5-8.033,3.911a5.657,5.657,0,0,0,1.048,7.312l33.357,32.577a6.16,6.16,0,0,0,4.282,1.6,6.5,6.5,0,0,0,3.395-.92c2.362-1.456,2.757-4.123.88-5.956l-30.769-30.05h7.184c13.384,0,24.583-7.426,27.161-17.266H204.3c3.018,0,5.464-1.9,5.464-4.239s-2.446-4.239-5.464-4.239h-9.445a18.756,18.756,0,0,0-4.9-8.789H204.3c3.018,0,5.464-1.9,5.464-4.239s-2.446-4.239-5.464-4.239H149.062c-3.018,0-5.464,1.9-5.464,4.239s2.445,4.239,5.464,4.239h19.18a18.622,18.622,0,0,1,11.39,3.663,12.347,12.347,0,0,1,4,5.126H149.062C146.043,271.106,143.6,273,143.6,275.345Z" transform="translate(-151 -44.461)" fill="#46c2e0"/>
    </g>
    <path id="solar-energy-2" d="M386.052,296.789a6.777,6.777,0,0,0,5.829-6.7V204.735L464.278,83.8A6.8,6.8,0,0,0,458.449,73.5H275.8a6.8,6.8,0,0,0,0,13.6h14.087l-18.61,31.089h-61.5L228.394,87.1h15.673a6.8,6.8,0,0,0,0-13.6H224.539a6.8,6.8,0,0,0-5.829,3.311L84.939,300.263a6.8,6.8,0,0,0,5.829,10.29H324.679a6.8,6.8,0,0,0,5.829-3.307l6.307-10.555c.214.051.427.082.645.113v84.39H235a6.8,6.8,0,0,0-6.8,6.8v40.8H198.238v-5.324a6.8,6.8,0,0,0-6.8-6.8H174.913V365.184a6.8,6.8,0,0,0-6.8-6.8H151.721V341.867a6.8,6.8,0,0,0-6.8-6.8H121.6a6.8,6.8,0,0,0-6.8,6.8v16.516H66.733V341.867a6.8,6.8,0,0,0-6.8-6.8H36.616a6.8,6.8,0,0,0-6.8,6.8v16.516h-16.4a6.8,6.8,0,0,0-6.8,6.8v93.266a6.8,6.8,0,0,0,6.8,6.8h154.7a6.8,6.8,0,0,0,6.8-6.8v-4.858h16.524a6.8,6.8,0,0,0,6.8-6.8V442.4H235a6.8,6.8,0,0,0,6.8-6.8V394.8h95.675v10.22H313.289a6.8,6.8,0,0,0-6.8,6.8v16.516H284.4a6.8,6.8,0,0,0-6.8,6.8v23.316a6.8,6.8,0,0,0,6.8,6.8h28.889a6.8,6.8,0,1,0,0-13.6H291.2v-9.715H432.3v9.715H347.7a6.8,6.8,0,0,0,0,13.6h91.4a6.8,6.8,0,0,0,6.8-6.8V435.133a6.8,6.8,0,0,0-6.8-6.8H417V411.816a6.8,6.8,0,0,0-6.8-6.8H386.052V380.242a6.8,6.8,0,1,0-13.6,0v24.774H351.077V296.905h21.373v15.428a6.8,6.8,0,1,0,13.6,0ZM128.4,348.668h9.715v9.715H128.4Zm-84.988,0h9.715v9.715H43.416Zm117.9,102.981H20.217V371.984h141.1Zm23.316-11.658h-9.715v-9.715h9.715ZM403.4,428.332h-83.29v-9.715h83.314ZM378.28,283.3H345.248v-.672l33.032-55.182ZM180.113,296.952l18.61-31.089h61.5l-18.61,31.089Zm-31.982-75.779h61.5l-18.61,31.089h-61.5Zm26.752-44.69h61.5l-18.614,31.089h-61.5Zm226.2-13.6H337.721l18.614-31.089H419.7Zm-8.161,13.6-18.61,31.089H310.973l18.61-31.089ZM295.1,207.572H233.62l18.61-31.089h61.5Zm-88.253,44.69,18.614-31.089h61.513l-18.614,31.089Zm95.959-31.089H366.19l-18.614,31.089H284.233ZM427.823,118.192H364.476L383.087,87.1h63.366ZM305.727,87.1h61.513l-18.614,31.089h-61.5Zm-26.756,44.69h61.513l-18.61,31.089h-61.5Zm-15.851,0-18.61,31.089H183.028l18.61-31.089Zm-141.76,134.07h61.513l-18.61,31.089h-61.5ZM320.8,296.952H257.458l18.614-31.089h63.343Zm65.232,38.6v17a6.8,6.8,0,0,1-13.6,0v-17a6.8,6.8,0,0,1,13.6,0ZM11.551,82.472H22.719a53.049,53.049,0,0,0,10.714,25.8L25.5,116.2a6.815,6.815,0,1,0,9.638,9.639l7.93-7.933a53.049,53.049,0,0,0,25.8,10.714v11.169a6.8,6.8,0,1,0,13.6,0V128.623a53.049,53.049,0,0,0,25.8-10.714l7.931,7.931a6.815,6.815,0,1,0,9.639-9.639l-7.933-7.93a53.049,53.049,0,0,0,10.714-25.8h11.169a6.8,6.8,0,1,0,0-13.6H128.623a53.049,53.049,0,0,0-10.714-25.8l7.931-7.931A6.815,6.815,0,1,0,116.2,25.5l-7.93,7.929a53.084,53.084,0,0,0-25.8-10.71V11.551a6.8,6.8,0,1,0-13.6,0V22.719a53.084,53.084,0,0,0-25.8,10.71L35.139,25.5A6.815,6.815,0,1,0,25.5,35.14l7.933,7.93a53.049,53.049,0,0,0-10.714,25.8H11.551a6.8,6.8,0,1,0,0,13.6Zm64.12-46.633A39.832,39.832,0,1,1,35.839,75.671,39.832,39.832,0,0,1,75.671,35.839ZM43.533,405.016V429.3a6.8,6.8,0,1,1-13.6,0V405.016a6.8,6.8,0,1,1,13.6,0Zm61.011,2.856a6.8,6.8,0,0,1,.882,6.171l-8.235,23.81a6.8,6.8,0,0,1-6.428,4.574,6.669,6.669,0,0,1-2.227-.388,6.8,6.8,0,0,1-4.2-8.65l5.122-14.767H82.514a6.8,6.8,0,0,1-6.424-9.027l8.25-23.8a6.8,6.8,0,1,1,12.851,4.453L92.07,405.012h6.948a6.808,6.808,0,0,1,5.542,2.86Z" transform="translate(842.25 1212.25)" fill="#46c2e0"/>
  </g>
</svg>
