<?xml version="1.0"?>
<svg xmlns="http://www.w3.org/2000/svg" xmlns:xlink="http://www.w3.org/1999/xlink" xmlns:svgjs="http://svgjs.com/svgjs" version="1.1" width="512" height="512" x="0" y="0" viewBox="0 0 512 512" style="enable-background:new 0 0 512 512" xml:space="preserve" class=""><g><g xmlns="http://www.w3.org/2000/svg" id="XMLID_1608_"><g id="XMLID_226_"><path id="XMLID_838_" d="m296.369 250.32c2.521-4.914.581-10.941-4.333-13.461-4.916-2.522-10.942-.58-13.462 4.333-14.811 28.872-44.152 46.808-76.574 46.808-47.42 0-86-38.58-86-86s38.58-86 86-86c32.421 0 61.763 17.936 76.573 46.808 2.521 4.913 8.545 6.854 13.462 4.333 4.914-2.521 6.854-8.548 4.333-13.462-18.25-35.578-54.41-57.679-94.368-57.679-58.449 0-106 47.551-106 106s47.551 106 106 106c39.958 0 76.118-22.102 94.369-57.68z" fill="#46c2e0" data-original="#000000" style="" class=""/><path id="XMLID_841_" d="m303.548 110.452c2.559 0 5.119-.976 7.071-2.929l34.216-34.216c3.905-3.905 3.905-10.237 0-14.143-3.905-3.905-10.237-3.905-14.143 0l-34.215 34.216c-3.905 3.905-3.905 10.237 0 14.143 1.953 1.953 4.512 2.929 7.071 2.929z" fill="#46c2e0" data-original="#000000" style="" class=""/><path id="XMLID_842_" d="m93.38 296.477-34.216 34.216c-3.905 3.905-3.905 10.237 0 14.143 1.953 1.953 4.512 2.929 7.071 2.929s5.119-.976 7.071-2.929l34.216-34.216c3.905-3.905 3.905-10.237 0-14.143s-10.236-3.905-14.142 0z" fill="#46c2e0" data-original="#000000" style="" class=""/><path id="XMLID_844_" d="m296.477 310.62 34.216 34.216c1.953 1.953 4.512 2.929 7.071 2.929s5.119-.976 7.071-2.929c3.905-3.905 3.905-10.237 0-14.143l-34.216-34.216c-3.905-3.905-10.237-3.905-14.143 0s-3.904 10.237.001 14.143z" fill="#46c2e0" data-original="#000000" style="" class=""/><path id="XMLID_854_" d="m93.38 107.523c1.953 1.953 4.512 2.929 7.071 2.929s5.119-.976 7.071-2.929c3.905-3.905 3.905-10.237 0-14.143l-34.215-34.216c-3.905-3.905-10.237-3.905-14.143 0-3.905 3.905-3.905 10.237 0 14.143z" fill="#46c2e0" data-original="#000000" style="" class=""/><path id="XMLID_922_" d="m335.611 202c0 5.523 4.477 10 10 10h48.389c5.523 0 10-4.477 10-10s-4.477-10-10-10h-48.389c-5.523 0-10 4.477-10 10z" fill="#46c2e0" data-original="#000000" style="" class=""/><path id="XMLID_1051_" d="m68.389 202c0-5.523-4.477-10-10-10h-48.389c-5.523 0-10 4.477-10 10s4.477 10 10 10h48.389c5.523 0 10-4.477 10-10z" fill="#46c2e0" data-original="#000000" style="" class=""/><path id="XMLID_1054_" d="m202 68.389c5.523 0 10-4.477 10-10v-48.389c0-5.523-4.477-10-10-10s-10 4.477-10 10v48.389c0 5.523 4.477 10 10 10z" fill="#46c2e0" data-original="#000000" style="" class=""/><path id="XMLID_1059_" d="m502 462.029h-29.958v-32h29.958c5.523 0 10-4.477 10-10s-4.477-10-10-10h-29.958v-19.971c0-5.523-4.477-10-10-10h-60.07c-32.978 0-60.381 24.323-65.214 55.971h-93.758c-17.093 0-31-13.907-31-31v-58.761c0-5.523-4.477-10-10-10s-10 4.477-10 10v58.761c0 28.122 22.878 51 51 51h93.757c4.833 31.648 32.237 55.971 65.214 55.971h60.07c5.523 0 10-4.477 10-10v-19.971h29.959c5.523 0 10-4.477 10-10s-4.477-10-10-10zm-49.958 29.971h-50.07c-25.349 0-45.972-20.623-45.972-45.971s20.623-45.971 45.971-45.971h50.07v91.942z" fill="#46c2e0" data-original="#000000" style="" class=""/><path id="XMLID_1066_" d="m203.881 250.2c1.083.375 2.187.553 3.272.553 4.143 0 8.018-2.596 9.449-6.731l13.416-38.75c1.058-3.057.573-6.437-1.304-9.072-1.876-2.635-4.911-4.2-8.146-4.2h-23.091l8.821-25.479c1.807-5.219-.959-10.915-6.178-12.721-5.22-1.807-10.915.959-12.721 6.178l-13.416 38.75c-1.058 3.057-.573 6.437 1.304 9.072 1.876 2.635 4.911 4.2 8.146 4.2h23.091l-8.821 25.479c-1.807 5.218.959 10.914 6.178 12.721z" fill="#46c2e0" data-original="#000000" style="" class=""/><path id="XMLID_1072_" d="m308 202c0-2.63-1.07-5.21-2.93-7.07s-4.44-2.93-7.07-2.93-5.21 1.07-7.07 2.93-2.93 4.44-2.93 7.07 1.07 5.21 2.93 7.07 4.44 2.93 7.07 2.93 5.21-1.07 7.07-2.93 2.93-4.44 2.93-7.07z" fill="#46c2e0" data-original="#000000" style="" class=""/></g></g></g></svg>
